<svg xmlns="http://www.w3.org/2000/svg" xmlns:xlink="http://www.w3.org/1999/xlink" width="500" zoomAndPan="magnify" viewBox="0 0 375 374.999991" height="500" preserveAspectRatio="xMidYMid meet" version="1.0"><defs><g/><clipPath id="c51d2b8c44"><path d="M 182 175 L 271 175 L 271 297 L 182 297 Z M 182 175 " clip-rule="nonzero"/></clipPath><clipPath id="bb8371d6e9"><path d="M 270.503906 296.820312 L 173.605469 288.898438 L 182.921875 174.925781 L 279.820312 182.847656 Z M 270.503906 296.820312 " clip-rule="nonzero"/></clipPath><clipPath id="687d40ce4e"><path d="M 267.449219 296.417969 C 259.605469 295.585938 258.050781 295.074219 256.898438 294.34375 C 255.925781 293.753906 255.222656 292.996094 254.664062 291.992188 C 253.929688 290.847656 253.589844 289.542969 253.226562 287.726562 C 252.695312 284.875 253.242188 278.988281 252.691406 276.324219 C 252.367188 274.832031 252.058594 273.914062 251.371094 272.964844 C 250.683594 272.015625 249.851562 271.246094 248.4375 270.617188 C 245.910156 269.519531 239.378906 269.8125 236.761719 269.027344 C 235.332031 268.589844 234.46875 268.199219 233.507812 267.484375 C 232.550781 266.703125 231.5625 265.539062 230.960938 264.277344 C 230.363281 263.015625 230.273438 261.796875 230.050781 259.800781 C 229.636719 256.320312 231.871094 247.699219 229.492188 244.824219 C 227.277344 242.21875 220.398438 243.632812 217.195312 242.222656 C 214.738281 241.066406 212.640625 239.425781 211.371094 237.789062 C 210.386719 236.5625 209.917969 235.246094 209.648438 233.886719 C 209.324219 232.390625 209.558594 231.070312 209.777344 229.175781 C 210.089844 226.136719 212.367188 220.132812 211.804688 217.664062 C 211.53125 216.300781 211.027344 215.429688 209.871094 214.761719 C 207.800781 213.570312 201.710938 214.667969 199.101562 213.816406 C 197.484375 213.300781 196.460938 212.582031 195.453125 211.605469 C 194.386719 210.625 193.609375 209.222656 193.015625 207.894531 C 192.480469 206.640625 192.238281 205.664062 192.074219 203.800781 C 191.734375 200.136719 193.59375 190.652344 192.710938 187.390625 C 192.273438 185.757812 191.5 185.058594 190.621094 184.09375 C 189.558594 183.046875 187.867188 181.890625 186.683594 181.539062 C 185.9375 181.285156 185.269531 181.675781 184.65625 181.371094 C 183.921875 180.992188 182.925781 179.890625 182.808594 178.988281 C 182.683594 178.148438 183.117188 176.78125 183.738281 176.191406 C 184.359375 175.605469 185.734375 175.207031 186.613281 175.34375 C 187.492188 175.542969 188.566406 176.460938 188.878906 177.3125 C 189.195312 178.105469 189.082031 179.5 188.578125 180.226562 C 188.070312 180.949219 186.863281 181.679688 185.96875 181.671875 C 185.078125 181.660156 183.792969 180.980469 183.339844 180.308594 C 182.824219 179.5625 182.753906 178.089844 183.007812 177.34375 C 183.191406 176.65625 183.742188 176.128906 184.28125 175.789062 C 184.820312 175.453125 185.410156 175.246094 186.296875 175.316406 C 187.820312 175.441406 190.984375 176.53125 192.914062 177.898438 C 194.902344 179.339844 196.855469 181.984375 197.914062 183.859375 C 198.6875 185.328125 199.058594 186.25 199.289062 188.121094 C 199.757812 191.730469 197.714844 201.132812 198.417969 204.253906 C 198.683594 205.679688 198.878906 206.398438 199.90625 207.121094 C 201.710938 208.417969 207.890625 207.773438 210.574219 208.503906 C 212.382812 209.03125 213.617188 209.515625 214.75 210.503906 C 215.945312 211.492188 216.820312 213.289062 217.414062 214.613281 C 217.890625 215.800781 218.140625 216.648438 218.140625 218.179688 C 218.175781 220.863281 216.234375 226.703125 216.121094 229.628906 C 215.976562 231.402344 215.863281 232.796875 216.40625 233.925781 C 216.90625 234.863281 217.628906 235.367188 218.792969 235.972656 C 221.117188 237.183594 227.3125 237.882812 229.917969 238.796875 C 231.347656 239.296875 232.277344 239.628906 233.179688 240.277344 C 234.078125 240.988281 234.847656 241.75 235.386719 242.945312 C 236.183594 244.921875 236.203125 248.5625 236.359375 251.320312 C 236.523438 254.011719 236.070312 257.230469 236.410156 259.296875 C 236.613281 260.71875 236.394531 261.847656 237.410156 262.699219 C 239.136719 264.179688 245.738281 263.058594 248.84375 264.078125 C 251.207031 264.847656 253.140625 266.152344 254.636719 267.359375 C 255.710938 268.277344 256.46875 269.167969 257.136719 270.371094 C 257.917969 271.710938 258.5 273.164062 258.917969 275.113281 C 259.558594 278.164062 258.578125 284.71875 259.589844 287.164062 C 260.066406 288.351562 260.648438 289.035156 261.691406 289.566406 C 263.28125 290.398438 267.171875 289.632812 268.652344 290.265625 C 269.519531 290.589844 270.121094 291.023438 270.449219 291.6875 C 270.773438 292.414062 270.78125 293.882812 270.527344 294.628906 C 270.359375 295.125 270.011719 295.480469 269.601562 295.828125 C 269.0625 296.167969 267.449219 296.417969 267.449219 296.417969 " clip-rule="nonzero"/></clipPath><clipPath id="f80995c04a"><path d="M 0.640625 0.199219 L 88.960938 0.199219 L 88.960938 121.640625 L 0.640625 121.640625 Z M 0.640625 0.199219 " clip-rule="nonzero"/></clipPath><clipPath id="7e1b84b0a1"><path d="M 88.503906 121.820312 L -8.394531 113.898438 L 0.921875 -0.0742188 L 97.820312 7.847656 Z M 88.503906 121.820312 " clip-rule="nonzero"/></clipPath><clipPath id="3005b6447e"><path d="M 85.449219 121.417969 C 77.605469 120.585938 76.050781 120.074219 74.898438 119.34375 C 73.925781 118.753906 73.222656 117.996094 72.664062 116.992188 C 71.929688 115.847656 71.589844 114.542969 71.226562 112.726562 C 70.695312 109.875 71.242188 103.988281 70.691406 101.324219 C 70.367188 99.832031 70.058594 98.914062 69.371094 97.964844 C 68.683594 97.015625 67.851562 96.246094 66.4375 95.617188 C 63.910156 94.519531 57.378906 94.8125 54.761719 94.027344 C 53.332031 93.589844 52.46875 93.199219 51.507812 92.484375 C 50.550781 91.703125 49.5625 90.539062 48.960938 89.277344 C 48.363281 88.015625 48.273438 86.796875 48.050781 84.800781 C 47.636719 81.320312 49.871094 72.699219 47.492188 69.824219 C 45.277344 67.21875 38.398438 68.632812 35.195312 67.222656 C 32.738281 66.066406 30.640625 64.425781 29.371094 62.789062 C 28.386719 61.5625 27.917969 60.246094 27.648438 58.886719 C 27.324219 57.390625 27.558594 56.070312 27.777344 54.175781 C 28.089844 51.136719 30.367188 45.132812 29.804688 42.664062 C 29.53125 41.300781 29.027344 40.429688 27.871094 39.761719 C 25.800781 38.570312 19.710938 39.667969 17.101562 38.816406 C 15.484375 38.300781 14.460938 37.582031 13.453125 36.605469 C 12.386719 35.625 11.609375 34.222656 11.015625 32.894531 C 10.480469 31.640625 10.238281 30.664062 10.074219 28.800781 C 9.734375 25.136719 11.59375 15.652344 10.710938 12.390625 C 10.273438 10.757812 9.5 10.058594 8.621094 9.09375 C 7.558594 8.046875 5.867188 6.890625 4.683594 6.539062 C 3.9375 6.285156 3.269531 6.675781 2.65625 6.371094 C 1.921875 5.992188 0.925781 4.890625 0.808594 3.988281 C 0.683594 3.148438 1.117188 1.78125 1.738281 1.191406 C 2.359375 0.605469 3.734375 0.207031 4.613281 0.34375 C 5.492188 0.542969 6.566406 1.460938 6.878906 2.3125 C 7.195312 3.105469 7.082031 4.5 6.578125 5.226562 C 6.070312 5.949219 4.863281 6.679688 3.96875 6.671875 C 3.078125 6.660156 1.792969 5.980469 1.339844 5.308594 C 0.824219 4.5625 0.753906 3.089844 1.007812 2.34375 C 1.191406 1.65625 1.742188 1.128906 2.28125 0.789062 C 2.820312 0.453125 3.410156 0.246094 4.296875 0.316406 C 5.820312 0.441406 8.984375 1.53125 10.914062 2.898438 C 12.902344 4.339844 14.855469 6.984375 15.914062 8.859375 C 16.6875 10.328125 17.058594 11.25 17.289062 13.121094 C 17.757812 16.730469 15.714844 26.132812 16.417969 29.253906 C 16.683594 30.679688 16.878906 31.398438 17.90625 32.121094 C 19.710938 33.417969 25.890625 32.773438 28.574219 33.503906 C 30.382812 34.03125 31.617188 34.515625 32.75 35.503906 C 33.945312 36.492188 34.820312 38.289062 35.414062 39.613281 C 35.890625 40.800781 36.140625 41.648438 36.140625 43.179688 C 36.175781 45.863281 34.234375 51.703125 34.121094 54.628906 C 33.976562 56.402344 33.863281 57.796875 34.40625 58.925781 C 34.90625 59.863281 35.628906 60.367188 36.792969 60.972656 C 39.117188 62.183594 45.3125 62.882812 47.917969 63.796875 C 49.347656 64.296875 50.277344 64.628906 51.179688 65.277344 C 52.078125 65.988281 52.847656 66.75 53.386719 67.945312 C 54.183594 69.921875 54.203125 73.5625 54.359375 76.320312 C 54.523438 79.011719 54.070312 82.230469 54.410156 84.296875 C 54.613281 85.71875 54.394531 86.847656 55.410156 87.699219 C 57.136719 89.179688 63.738281 88.058594 66.84375 89.078125 C 69.207031 89.847656 71.140625 91.152344 72.636719 92.359375 C 73.710938 93.277344 74.46875 94.167969 75.136719 95.371094 C 75.917969 96.710938 76.5 98.164062 76.917969 100.113281 C 77.558594 103.164062 76.578125 109.71875 77.589844 112.164062 C 78.066406 113.351562 78.648438 114.035156 79.691406 114.566406 C 81.28125 115.398438 85.171875 114.632812 86.652344 115.265625 C 87.519531 115.589844 88.121094 116.023438 88.449219 116.6875 C 88.773438 117.414062 88.78125 118.882812 88.527344 119.628906 C 88.359375 120.125 88.011719 120.480469 87.601562 120.828125 C 87.0625 121.167969 85.449219 121.417969 85.449219 121.417969 " clip-rule="nonzero"/></clipPath><clipPath id="2dfe66f702"><rect x="0" width="89" y="0" height="122"/></clipPath><clipPath id="d9706d179f"><path d="M 185 54 L 243 54 L 243 180 L 185 180 Z M 185 54 " clip-rule="nonzero"/></clipPath><clipPath id="91aa19e5c9"><path d="M 237.359375 53.324219 L 279.464844 130.785156 L 188.355469 180.3125 L 146.246094 102.851562 Z M 237.359375 53.324219 " clip-rule="nonzero"/></clipPath><clipPath id="c0ac7230f2"><path d="M 238.570312 55.84375 C 241.832031 62.210938 242.21875 63.640625 242.234375 64.878906 C 242.269531 65.910156 242.042969 66.820312 241.558594 67.742188 C 241.054688 68.867188 240.234375 69.773438 239.035156 70.949219 C 237.136719 72.769531 232.398438 75.28125 230.648438 77.019531 C 229.679688 78.007812 229.132812 78.695312 228.753906 79.6875 C 228.375 80.683594 228.203125 81.695312 228.433594 83.082031 C 228.851562 85.542969 232.320312 90.355469 233.019531 92.730469 C 233.402344 94.03125 233.535156 94.878906 233.46875 95.964844 C 233.351562 97.078125 232.957031 98.410156 232.296875 99.488281 C 231.636719 100.570312 230.757812 101.246094 229.351562 102.402344 C 226.917969 104.449219 219.265625 107.03125 218.269531 110.265625 C 217.390625 113.238281 221.878906 117.753906 222.398438 120.886719 C 222.742188 123.324219 222.539062 125.730469 221.929688 127.507812 C 221.484375 128.863281 220.71875 129.871094 219.820312 130.753906 C 218.847656 131.742188 217.730469 132.21875 216.183594 132.996094 C 213.722656 134.265625 208.039062 135.519531 206.441406 137.175781 C 205.542969 138.054688 205.132812 138.871094 205.199219 140.082031 C 205.324219 142.246094 209.179688 146.316406 209.832031 148.722656 C 210.242188 150.203125 210.207031 151.339844 209.964844 152.589844 C 209.75 153.886719 209.070312 155.171875 208.363281 156.28125 C 207.675781 157.3125 207.050781 157.976562 205.71875 159.03125 C 203.109375 161.105469 194.988281 164.402344 192.953125 166.691406 C 191.933594 167.835938 191.785156 168.773438 191.488281 169.917969 C 191.222656 171.242188 191.183594 173.101562 191.503906 174.175781 C 191.683594 174.863281 192.3125 175.179688 192.386719 175.796875 C 192.464844 176.542969 192.121094 177.84375 191.496094 178.382812 C 190.917969 178.890625 189.664062 179.242188 188.910156 179.0625 C 188.15625 178.882812 187.171875 178.039062 186.839844 177.300781 C 186.554688 176.539062 186.714844 175.265625 187.210938 174.605469 C 187.652344 173.972656 188.769531 173.363281 189.566406 173.390625 C 190.371094 173.414062 191.523438 173.96875 191.960938 174.648438 C 192.394531 175.332031 192.519531 176.644531 192.230469 177.324219 C 191.921875 178.082031 190.839844 178.867188 190.148438 179.046875 C 189.535156 179.25 188.859375 179.089844 188.335938 178.851562 C 187.8125 178.609375 187.363281 178.265625 186.976562 177.554688 C 186.316406 176.339844 185.570312 173.398438 185.648438 171.253906 C 185.753906 169.03125 186.792969 166.234375 187.691406 164.5 C 188.417969 163.183594 188.933594 162.445312 190.238281 161.339844 C 192.746094 159.191406 200.898438 156.074219 202.914062 153.992188 C 203.863281 153.082031 204.3125 152.574219 204.351562 151.4375 C 204.4375 149.421875 200.878906 145.054688 200.101562 142.65625 C 199.605469 141.019531 199.359375 139.84375 199.546875 138.492188 C 199.703125 137.09375 200.632812 135.539062 201.34375 134.433594 C 202.007812 133.480469 202.527344 132.871094 203.6875 132.105469 C 205.707031 130.746094 211.101562 129.324219 213.378906 127.957031 C 214.796875 127.183594 215.910156 126.578125 216.496094 125.605469 C 216.957031 124.761719 216.984375 123.960938 216.863281 122.777344 C 216.628906 120.414062 214.082031 115.363281 213.480469 112.933594 C 213.152344 111.601562 212.941406 110.734375 212.984375 109.726562 C 213.078125 108.691406 213.277344 107.726562 213.914062 106.726562 C 215.019531 105.140625 217.773438 103.316406 219.785156 101.828125 C 221.746094 100.367188 224.414062 99.113281 225.816406 97.828125 C 226.792969 96.96875 227.757812 96.574219 227.898438 95.382812 C 228.164062 93.335938 224.039062 88.882812 223.269531 86.019531 C 222.679688 83.847656 222.707031 81.730469 222.882812 79.992188 C 223.042969 78.722656 223.34375 77.707031 223.925781 76.601562 C 224.554688 75.34375 225.367188 74.179688 226.636719 72.898438 C 228.632812 70.894531 234.097656 68.382812 235.449219 66.402344 C 236.113281 65.449219 236.34375 64.667969 236.230469 63.613281 C 236.070312 61.996094 233.558594 59.421875 233.300781 57.984375 C 233.117188 57.167969 233.148438 56.496094 233.488281 55.914062 C 233.878906 55.308594 234.992188 54.574219 235.679688 54.394531 C 236.140625 54.277344 236.582031 54.363281 237.050781 54.503906 C 237.578125 54.742188 238.570312 55.84375 238.570312 55.84375 " clip-rule="nonzero"/></clipPath><clipPath id="764c480657"><path d="M 0.519531 0.238281 L 57.398438 0.238281 L 57.398438 125.28125 L 0.519531 125.28125 Z M 0.519531 0.238281 " clip-rule="nonzero"/></clipPath><clipPath id="fd51432986"><path d="M 52.359375 -0.675781 L 94.464844 76.785156 L 3.355469 126.3125 L -38.753906 48.851562 Z M 52.359375 -0.675781 " clip-rule="nonzero"/></clipPath><clipPath id="ed7f1d7caa"><path d="M 53.570312 1.84375 C 56.832031 8.210938 57.21875 9.640625 57.234375 10.878906 C 57.269531 11.910156 57.042969 12.820312 56.558594 13.742188 C 56.054688 14.867188 55.234375 15.773438 54.035156 16.949219 C 52.136719 18.769531 47.398438 21.28125 45.648438 23.019531 C 44.679688 24.007812 44.132812 24.695312 43.753906 25.6875 C 43.375 26.683594 43.203125 27.695312 43.433594 29.082031 C 43.851562 31.542969 47.320312 36.355469 48.019531 38.730469 C 48.402344 40.03125 48.535156 40.878906 48.46875 41.964844 C 48.351562 43.078125 47.957031 44.410156 47.296875 45.488281 C 46.636719 46.570312 45.757812 47.246094 44.351562 48.402344 C 41.917969 50.449219 34.265625 53.03125 33.269531 56.265625 C 32.390625 59.238281 36.878906 63.753906 37.398438 66.886719 C 37.742188 69.324219 37.539062 71.730469 36.929688 73.507812 C 36.484375 74.863281 35.71875 75.871094 34.820312 76.753906 C 33.847656 77.742188 32.730469 78.21875 31.183594 78.996094 C 28.722656 80.265625 23.039062 81.519531 21.441406 83.175781 C 20.542969 84.054688 20.132812 84.871094 20.199219 86.082031 C 20.324219 88.246094 24.179688 92.316406 24.832031 94.722656 C 25.242188 96.203125 25.207031 97.339844 24.964844 98.589844 C 24.75 99.886719 24.070312 101.171875 23.363281 102.28125 C 22.675781 103.3125 22.050781 103.976562 20.71875 105.03125 C 18.109375 107.105469 9.988281 110.402344 7.953125 112.691406 C 6.933594 113.835938 6.785156 114.773438 6.488281 115.917969 C 6.222656 117.242188 6.183594 119.101562 6.503906 120.175781 C 6.683594 120.863281 7.3125 121.179688 7.386719 121.796875 C 7.464844 122.542969 7.121094 123.84375 6.496094 124.382812 C 5.917969 124.890625 4.664062 125.242188 3.910156 125.0625 C 3.15625 124.882812 2.171875 124.039062 1.839844 123.300781 C 1.554688 122.539062 1.714844 121.265625 2.210938 120.605469 C 2.652344 119.972656 3.769531 119.363281 4.566406 119.390625 C 5.371094 119.414062 6.523438 119.96875 6.960938 120.648438 C 7.394531 121.332031 7.519531 122.644531 7.230469 123.324219 C 6.921875 124.082031 5.839844 124.867188 5.148438 125.046875 C 4.535156 125.25 3.859375 125.089844 3.335938 124.851562 C 2.8125 124.609375 2.363281 124.265625 1.976562 123.554688 C 1.316406 122.339844 0.570312 119.398438 0.648438 117.253906 C 0.753906 115.03125 1.792969 112.234375 2.691406 110.5 C 3.417969 109.183594 3.933594 108.445312 5.238281 107.339844 C 7.746094 105.191406 15.898438 102.074219 17.914062 99.992188 C 18.863281 99.082031 19.3125 98.574219 19.351562 97.4375 C 19.4375 95.421875 15.878906 91.054688 15.101562 88.65625 C 14.605469 87.019531 14.359375 85.84375 14.546875 84.492188 C 14.703125 83.09375 15.632812 81.539062 16.34375 80.433594 C 17.007812 79.480469 17.527344 78.871094 18.6875 78.105469 C 20.707031 76.746094 26.101562 75.324219 28.378906 73.957031 C 29.796875 73.183594 30.910156 72.578125 31.496094 71.605469 C 31.957031 70.761719 31.984375 69.960938 31.863281 68.777344 C 31.628906 66.414062 29.082031 61.363281 28.480469 58.933594 C 28.152344 57.601562 27.941406 56.734375 27.984375 55.726562 C 28.078125 54.691406 28.277344 53.726562 28.914062 52.726562 C 30.019531 51.140625 32.773438 49.316406 34.785156 47.828125 C 36.746094 46.367188 39.414062 45.113281 40.816406 43.828125 C 41.792969 42.96875 42.757812 42.574219 42.898438 41.382812 C 43.164062 39.335938 39.039062 34.882812 38.269531 32.019531 C 37.679688 29.847656 37.707031 27.730469 37.882812 25.992188 C 38.042969 24.722656 38.34375 23.707031 38.925781 22.601562 C 39.554688 21.34375 40.367188 20.179688 41.636719 18.898438 C 43.632812 16.894531 49.097656 14.382812 50.449219 12.402344 C 51.113281 11.449219 51.34375 10.667969 51.230469 9.613281 C 51.070312 7.996094 48.558594 5.421875 48.300781 3.984375 C 48.117188 3.167969 48.148438 2.496094 48.488281 1.914062 C 48.878906 1.308594 49.992188 0.574219 50.679688 0.394531 C 51.140625 0.277344 51.582031 0.363281 52.050781 0.503906 C 52.578125 0.742188 53.570312 1.84375 53.570312 1.84375 " clip-rule="nonzero"/></clipPath><clipPath id="495d46d2b3"><rect x="0" width="58" y="0" height="126"/></clipPath><clipPath id="f434a7d203"><path d="M 181.921875 171.023438 L 194.195312 171.023438 L 194.195312 183.296875 L 181.921875 183.296875 Z M 181.921875 171.023438 " clip-rule="nonzero"/></clipPath><clipPath id="4a7831d341"><path d="M 188.058594 171.023438 C 184.667969 171.023438 181.921875 173.769531 181.921875 177.160156 C 181.921875 180.550781 184.667969 183.296875 188.058594 183.296875 C 191.449219 183.296875 194.195312 180.550781 194.195312 177.160156 C 194.195312 173.769531 191.449219 171.023438 188.058594 171.023438 Z M 188.058594 171.023438 " clip-rule="nonzero"/></clipPath><clipPath id="7b75220356"><path d="M 0.921875 0.0234375 L 13.195312 0.0234375 L 13.195312 12.296875 L 0.921875 12.296875 Z M 0.921875 0.0234375 " clip-rule="nonzero"/></clipPath><clipPath id="65bf310b79"><path d="M 7.058594 0.0234375 C 3.667969 0.0234375 0.921875 2.769531 0.921875 6.160156 C 0.921875 9.550781 3.667969 12.296875 7.058594 12.296875 C 10.449219 12.296875 13.195312 9.550781 13.195312 6.160156 C 13.195312 2.769531 10.449219 0.0234375 7.058594 0.0234375 Z M 7.058594 0.0234375 " clip-rule="nonzero"/></clipPath><clipPath id="2a91121938"><rect x="0" width="14" y="0" height="13"/></clipPath><clipPath id="dd4bd80223"><rect x="0" width="212" y="0" height="257"/></clipPath><clipPath id="fc4cb3eefb"><path d="M 0.238281 14 L 32 14 L 32 51 L 0.238281 51 Z M 0.238281 14 " clip-rule="nonzero"/></clipPath><clipPath id="6ac54e3ddd"><rect x="0" width="144" y="0" height="64"/></clipPath></defs><g clip-path="url(#c51d2b8c44)"><g clip-path="url(#bb8371d6e9)"><g clip-path="url(#687d40ce4e)"><g transform="matrix(1, 0, 0, 1, 182, 175)"><g clip-path="url(#2dfe66f702)"><g clip-path="url(#f80995c04a)"><g clip-path="url(#7e1b84b0a1)"><g clip-path="url(#3005b6447e)"><path fill="#fdd400" d="M 90.691406 124.398438 L -10.972656 116.085938 L -1.265625 -2.652344 L 100.398438 5.660156 Z M 90.691406 124.398438 " fill-opacity="1" fill-rule="nonzero"/></g></g></g></g></g></g></g></g><g clip-path="url(#d9706d179f)"><g clip-path="url(#91aa19e5c9)"><g clip-path="url(#c0ac7230f2)"><g transform="matrix(1, 0, 0, 1, 185, 54)"><g clip-path="url(#495d46d2b3)"><g clip-path="url(#764c480657)"><g clip-path="url(#fd51432986)"><g clip-path="url(#ed7f1d7caa)"><path fill="#fdd400" d="M 53.226562 -3.613281 L 97.40625 77.65625 L 2.484375 129.25 L -41.691406 47.984375 Z M 53.226562 -3.613281 " fill-opacity="1" fill-rule="nonzero"/></g></g></g></g></g></g></g></g><path fill="#000000" d="M 186.976562 180.691406 L 166.726562 180.671875 L 166.734375 173.921875 L 186.984375 173.941406 M 159.976562 180.667969 L 139.726562 180.648438 L 139.734375 173.898438 L 159.984375 173.917969 M 132.976562 180.640625 L 112.726562 180.621094 L 112.734375 173.871094 L 132.984375 173.890625 M 105.976562 180.613281 L 85.726562 180.59375 L 85.734375 173.84375 L 105.984375 173.863281 M 78.976562 180.585938 L 58.726562 180.566406 L 58.734375 173.816406 L 78.984375 173.835938 M 51.976562 180.5625 L 31.726562 180.542969 L 31.734375 173.792969 L 51.984375 173.8125 " fill-opacity="1" fill-rule="nonzero"/><g clip-path="url(#f434a7d203)"><g clip-path="url(#4a7831d341)"><g transform="matrix(1, 0, 0, 1, 181, 171)"><g clip-path="url(#2a91121938)"><g clip-path="url(#7b75220356)"><g clip-path="url(#65bf310b79)"><path fill="#000000" d="M 0.921875 0.0234375 L 13.195312 0.0234375 L 13.195312 12.296875 L 0.921875 12.296875 Z M 0.921875 0.0234375 " fill-opacity="1" fill-rule="nonzero"/></g></g></g></g></g></g><g transform="matrix(1, 0, 0, 1, 56, 47)"><g clip-path="url(#dd4bd80223)"><g fill="#0a253c" fill-opacity="1"><g transform="translate(0.504012, 202.528797)"><g><path d="M 110.21875 0 L 74.671875 -51.109375 L 39.75 0 L 0.625 0 L 55.109375 -74.875 L 3.359375 -147.234375 L 42.0625 -147.234375 L 75.921875 -99.484375 L 109.15625 -147.234375 L 145.96875 -147.234375 L 94.640625 -76.140625 L 149.546875 0 Z M 110.21875 0 "/></g></g></g><g fill="#0a253c" fill-opacity="1"><g transform="translate(150.696197, 202.528797)"><g/></g></g></g></g><g transform="matrix(1, 0, 0, 1, 210, 145)"><g clip-path="url(#6ac54e3ddd)"><g clip-path="url(#fc4cb3eefb)"><g fill="#0a253c" fill-opacity="1"><g transform="translate(0.36979, 50.484449)"><g><path d="M 11.734375 -29.234375 L 0.203125 -29.234375 L 0.203125 -36.03125 L 31.609375 -36.03125 L 31.609375 -29.234375 L 20.078125 -29.234375 L 20.078125 0 L 11.734375 0 Z M 11.734375 -29.234375 "/></g></g></g></g><g fill="#0a253c" fill-opacity="1"><g transform="translate(32.181733, 50.484449)"><g><path d="M 31.609375 -27.6875 L 31.609375 0 L 23.984375 0 L 23.984375 -3.296875 C 22.921875 -2.097656 21.648438 -1.179688 20.171875 -0.546875 C 18.703125 0.0859375 17.109375 0.40625 15.390625 0.40625 C 11.753906 0.40625 8.867188 -0.640625 6.734375 -2.734375 C 4.609375 -4.828125 3.546875 -7.929688 3.546875 -12.046875 L 3.546875 -27.6875 L 11.578125 -27.6875 L 11.578125 -13.234375 C 11.578125 -8.765625 13.445312 -6.53125 17.1875 -6.53125 C 19.113281 -6.53125 20.660156 -7.15625 21.828125 -8.40625 C 22.992188 -9.664062 23.578125 -11.53125 23.578125 -14 L 23.578125 -27.6875 Z M 31.609375 -27.6875 "/></g></g></g><g fill="#0a253c" fill-opacity="1"><g transform="translate(67.545503, 50.484449)"><g><path d="M 4.265625 -36.03125 L 20.640625 -36.03125 C 24.546875 -36.03125 28 -35.28125 31 -33.78125 C 34.007812 -32.289062 36.34375 -30.191406 38 -27.484375 C 39.664062 -24.773438 40.5 -21.617188 40.5 -18.015625 C 40.5 -14.410156 39.664062 -11.253906 38 -8.546875 C 36.34375 -5.835938 34.007812 -3.734375 31 -2.234375 C 28 -0.742188 24.546875 0 20.640625 0 L 4.265625 0 Z M 20.234375 -6.84375 C 23.828125 -6.84375 26.695312 -7.847656 28.84375 -9.859375 C 30.988281 -11.867188 32.0625 -14.585938 32.0625 -18.015625 C 32.0625 -21.441406 30.988281 -24.160156 28.84375 -26.171875 C 26.695312 -28.179688 23.828125 -29.1875 20.234375 -29.1875 L 12.609375 -29.1875 L 12.609375 -6.84375 Z M 20.234375 -6.84375 "/></g></g></g><g fill="#0a253c" fill-opacity="1"><g transform="translate(110.064373, 50.484449)"><g><path d="M 16.875 0.40625 C 13.957031 0.40625 11.34375 -0.203125 9.03125 -1.421875 C 6.71875 -2.640625 4.90625 -4.328125 3.59375 -6.484375 C 2.289062 -8.648438 1.640625 -11.101562 1.640625 -13.84375 C 1.640625 -16.59375 2.289062 -19.046875 3.59375 -21.203125 C 4.90625 -23.367188 6.71875 -25.0625 9.03125 -26.28125 C 11.34375 -27.5 13.957031 -28.109375 16.875 -28.109375 C 19.789062 -28.109375 22.398438 -27.5 24.703125 -26.28125 C 27.003906 -25.0625 28.804688 -23.367188 30.109375 -21.203125 C 31.410156 -19.046875 32.0625 -16.59375 32.0625 -13.84375 C 32.0625 -11.101562 31.410156 -8.648438 30.109375 -6.484375 C 28.804688 -4.328125 27.003906 -2.640625 24.703125 -1.421875 C 22.398438 -0.203125 19.789062 0.40625 16.875 0.40625 Z M 16.875 -6.171875 C 18.9375 -6.171875 20.628906 -6.863281 21.953125 -8.25 C 23.273438 -9.644531 23.9375 -11.507812 23.9375 -13.84375 C 23.9375 -16.175781 23.273438 -18.035156 21.953125 -19.421875 C 20.628906 -20.816406 18.9375 -21.515625 16.875 -21.515625 C 14.820312 -21.515625 13.125 -20.816406 11.78125 -19.421875 C 10.445312 -18.035156 9.78125 -16.175781 9.78125 -13.84375 C 9.78125 -11.507812 10.445312 -9.644531 11.78125 -8.25 C 13.125 -6.863281 14.820312 -6.171875 16.875 -6.171875 Z M 16.875 -6.171875 "/></g></g></g></g></g></svg>